<?xml version="1.0" encoding="UTF-8"?>
<svg id="Calque_1" xmlns="http://www.w3.org/2000/svg" viewBox="0 0 595.28 841.89">
  <defs>
    <style>
      .cls-1 {
        fill: #df0914;
      }

      .cls-2 {
        fill: #fff;
      }
    </style>
  </defs>
  <path class="cls-1" d="M267.06,405.83c.38,0,.66-.08.86.01.69.32,1.35.7,2.03,1.05-.5.61-.93,1.64-1.52,1.74-4.34.72-8.72,1.26-13.08,1.82-1.23.15-2.49.08-3.72.22-1.66.18-2.24-.94-2.23-2.15.01-.47,1.23-1.27,1.95-1.35,5.28-.53,10.56-.92,15.71-1.34Z"/>
  <path class="cls-1" d="M269.21,413.85c.86,1.62.67,2.64-.99,2.89-5.21.76-10.42,1.45-16.01,2.23-.08-1.58-.12-2.35-.18-3.41,5.84-.58,11.55-1.15,17.18-1.71Z"/>
  <path class="cls-1" d="M298.61,358.61c-7.52,2.7-14.52,5.22-21.63,7.77,1.19-7.98,10.59-11.47,21.63-7.77Z"/>
  <path class="cls-1" d="M293.37,295.36c-4.88,0-9.69.32-14.4.95,9.14,7.89,18.02,15.55,26.8,23.11,2.78-7.27,5.57-14.55,8.43-22.05-6.74-1.32-13.7-2.01-20.83-2.01ZM331.1,302.12c7.03,6.15,13.27,13.11,18.7,20.86,1.66,2.37,3.17,4.86,4.52,7.41,2.77,5.22,6.17,9.89,10.15,14.31,12.53,13.96,19.39,30.65,23.13,48.89,4.01,19.59.75,37.59-9.47,54.83-5.48,9.25-10.92,18.23-19.38,24.99-2.97,2.38-6.19,4.46-9.29,6.68l5.14-5.78c7.45-8.43,5.88-7.07,9.38-12.25,6.26-9.27,10.03-16.82,13.2-26.12,2.09-6.14,4.4-12.32,5.35-18.75,1.2-8.16,1.02-11.38-.48-19.91-1.71-9.67-4.14-18.15-8.06-28.04-3.88-9.79-10.83-17.96-17.44-26.2-3.85-4.79-6.92-10.22-10.29-15.4-7.02-10.82-14.82-20.88-26.5-27.16-.27-.14-.56-.26-1.5-.68-3.21,10.16-6.37,20.16-9.62,30.43-5.26-5.21-10.23-10.52-15.63-15.37-5.44-4.88-11.29-9.29-17.6-14.43-.86,6.24-1.87,11.8-2.33,17.42-.46,5.76-.51,11.56-.49,17.35,0,2.45.36,4.98,1.05,7.32.59,2.03-.16,3.13-1.45,4.41-4.94,4.89-9.55,10.07-11.28,17.07-.6,2.44-.99,4.97-1.21,7.48-.23,2.71-1.41,4.56-3.71,6.06-10.19,6.63-20.3,13.38-30.42,20.1-7.16,4.76-5.87,5.24-3.23,11,.66,1.44,1.52,2.82,2.51,4.06,2.9,3.65,5.69,7.43,8.92,10.79,7.67,7.96,17.19,9.89,27.74,7.66,5.57-1.18,11.13-2.45,16.65-3.81,1.58-.39,2.49.03,2.57,1.5.21,3.66.77,7.41.23,10.98-1.52,10.16-3.54,20.25-5.32,30.38-.33,1.9-.39,3.84-.73,5.74-.18,1.05-.69,2.04-1.27,3.67-2.3-3.22-2.94-6.16-2.65-9.08.64-6.47,1.59-12.91,2.53-19.35.84-5.79,1.83-11.55,2.8-17.61-5.18,1.03-10.04,1.94-14.86,2.98-13.43,2.89-24.39-1.62-33.51-11.3-2.92-3.09-5.79-6.36-8-9.96-1.98-3.22-3.49-6.91-4.39-10.59-1.39-5.64,2.74-8.81,6.69-11.45,9.17-6.12,18.43-12.1,27.87-17.79,3.26-1.97,4.56-4.21,4.9-7.96.69-7.57,3.73-14.3,9.22-19.7,2.85-2.81,4.82-5.56,3.83-10-.8-3.57-.45-7.38-.87-11.05-.82-7.08,1.26-13.72,2.85-20.43.7-2.93,1.46-5.85,2.27-8.91-49.79,9.79-87.33,53.68-87.33,106.33s40.14,95.29,91.08,105.93l13.33,13.16c-1.65-3.41-3.27-6.78-4.88-10.15-2.22-4.63-4.86-9.12-6.5-13.94-1.49-4.37-2.02-9.08-2.7-13.68-.6-4.14.41-8.05,1.92-11.99,4.48-11.67,12.67-20.39,21.85-28.38.16-.15.41-.19,1.35-.61-1.93,3.11-3.57,5.61-5.08,8.19-3.69,6.32-6.99,12.83-8.6,20.05-1.27,5.7-2.47,11.42-3.67,17.14-.74,3.47.22,6.71,1.6,9.83,1.44,3.27,2.75,6.66,6.09,9.32-.21-4.22-.25-8.05-.64-11.84-.77-7.56,1.49-14.41,4.4-21.22,5.28-12.35,13.56-22.6,22.55-32.29,9.25-9.97,19.29-19.23,27.29-30.31,7.9-10.94,11.48-23.4,12.51-36.71.6-7.72-1.5-15.13-2.65-22.66-.27-1.75-.48-3.51-.79-5.85,8.12,8.33,14.25,16.99,15.27,28.35,1.15,12.63.83,25.22-4.54,36.93-5.01,10.9-11.44,21.01-19.36,30.15-7.46,8.59-14.58,17.47-21.85,26.23-6.53,7.86-13.16,15.65-19.55,23.62-6.2,7.75-8.69,17.06-10.82,27.19.84-1.01,1.3-1.49,1.68-2.03,10.12-13.92,22.92-25.23,35.48-36.8,10-9.21,19.71-18.74,29.56-28.13.9-.85,1.81-1.68,3.07-2.86-.12.77-.08,1.03-.19,1.19-4.62,7.17-8.74,14.73-14.04,21.35-3.95,4.95-9.42,8.68-14.2,12.97-12.55,11.25-25.29,22.3-35.76,35.58l15.86-11.33c49.79-10.5,87.68-53.62,87.68-106.4,0-46.58-29.39-86.31-70.64-101.62ZM246.36,352.36c-5.11,1.16-9.93,1.45-14.11,4.59-4.82,3.63-9.68,7.2-14.43,10.9-.62.49-1.14,1.77-.96,2.5,1.42,5.83,3.01,11.62,4.56,17.41.25.92.53,1.82.85,2.94-.78.45-1.58.91-2.78,1.6-.74-2.32-1.41-4.33-2.02-6.36-1.39-4.7-2.64-9.43-4.15-14.09-.72-2.23-.24-3.92,1.38-5.41,2.48-2.3,4.88-4.69,7.51-6.81,3.88-3.13,7.83-6.19,11.95-8.99,1.42-.98,3.4-1.34,5.18-1.57l23.65-2.31c-5.17,3.24-9.16,3.9-16.63,5.6ZM239.69,321.6c.77-3.07.86-4.14,3.91-5.5,9.1-4.06,15.45-7.1,22.74-9.06.79-.21.71-.19,1.32-.34-.43,2.52-.75,4.81-1.28,7.05-.15.66-.88,1.27-1.38,1.72l-27.03,26.96c-.2-7.33-.1-13.59,1.72-20.83ZM235.42,320.33l-2.59,23.67c-.57,3.01-1.1,2.89-2.93,4.41-6.03,4.97-12.04,9.96-17.95,15.06-1.65,1.43-2.88,1.86-4.71.32-1.69-1.43-3.16-2.62-5.42-4.11,9.94-14.96,18.75-29.37,33.6-39.35ZM200.61,362.03c1.99,1.69,3.45,2.93,5.07,4.3-4.41,7.29-8.79,14.52-13.17,21.75,1.99-8.74,3.92-17.5,8.1-26.05ZM191.13,410.69c3.32-11.46,4.16-13.69,8.23-26.63,2.24-7.1,3.55-9.9,6.49-14.39.18.09,1.67,1.2,1.85,1.29-1.19,3.2-2.46,6.37-3.54,9.6l-8.73,29.67c5.86,11.5,10.57,15.77,20.26,26.23,3.09-3.91,6.16-7.81,9.84-12.46.91,1.03,1.54,1.88,2.13,2.49.95.96.6,1.78-.33,2.9-1.22,1.5-2.24,3.15-3.43,4.67-4.1,5.17-9.95,5.6-14.97,1.32-6.61-5.65-12.87-15.19-17.53-22.46-.88-1.38-.74-.58-.27-2.23ZM209.7,461.24c-8.65-11.24-14.51-23.74-16.99-37.77.28-.27.56-.55.84-.82,5.33,5.46,10.03,11.73,15.36,17.2-1.73-.67-3.47-1.33-5.74-2.2,2.15,6.51,3.63,12.22,5.77,18.79.48,1.47,1.16,2.94,1.71,4.42-.32.13-.64.25-.95.38ZM252.32,482.48c4.44,3.46,8.77,7.06,13.25,10.47,1.65,1.26,2.45,2.64,2.01,5.31-1.82-1.05-3.48-1.72-4.79-2.82-4.24-3.57-8.37-7.28-12.5-10.99-.95-.85-1.65-1.14-3.1-.91-2.4.37-4.55-.18-7.22-1.5-16.58-8.19-11.15-4.65-25.49-13.65-1.05-.66-1.37-2.51-1.3-3.75.4-6.9.98-13.79,1.66-20.67.07-.74,1.2-1.91,1.89-1.96l39.05,6.43c-.06.36-.12.71-.18,1.06-1.18.22-2.39.78-3.54.61-16.08-2.35-18.91-2.68-30.15-4.8-2.67-.51-3.84.29-3.98,2.93-.25,4.41-.38,6.55-.99,13.21-.27,2.81.28,5.09,2.6,6.43,7.28,4.21,8.15,5.32,22.61,11.15,3.19,1.28,4.36.36,5.5-2.94,2.61-7.59,5.2-15.19,7.76-22.8,1.46-4.35,2.52-5.19,7.15-5.06,2.89.08,5.79.27,8.66.58.56.06,1.05.87,1.56,1.33-.58.45-1.16,1.28-1.76,1.29-2.73.06-5.47-.04-8.2-.25-1.41-.11-1.96.45-2.38,1.71-2.93,8.85-5.9,17.67-8.94,26.48-.46,1.34-.35,2.21.82,3.11ZM280.58,308.52c5.09,4.91,10.2,9.82,15.17,14.85,2.44,2.47,1.4,6.78-1.76,8.05-1.56.63-3.13,1.24-5.19,2.06-3.22-9.11-9.33-16.79-11.31-27.03,1.36.9,2.35,1.36,3.09,2.07ZM225.83,403.5c-.62-.06-1.2-.58-1.8-.88.39-.55.72-1.17,1.18-1.64,3.86-3.88,8.23-2.72,12.63-1.24-3.56,2.65-7.48,4.22-12.01,3.76ZM327.77,368.82c6.04,4.53,11.45,9.55,14.59,16.69,1.05,2.38.08,4.19-.56,6.18-.08.25-1.43.43-1.85.15-.99-.66-1.84-1.57-2.64-2.47-7.4-8.21-16.91-13.29-26.85-17.54-4.58-1.95-9.5-3.33-14.41-4.19-7.12-1.25-14.57,3.06-18.17,9.37-1.25,2.19-3.16,4.03-4.92,5.89-1.82,1.92-3.82,3.67-5.58,5.87,2.02-.74,4.03-1.5,6.05-2.24,6.24-2.31,12.46-4.7,19.23-5.05,1.05-.05,2.17-.66,3.07-1.27,2.13-1.43,4.4-1.57,6.88-1.57,9.96.01,18.27,4.01,25.59,10.36,4.7,4.07,6.79,9.66,8.12,15.53.23,1.01.03,2.29-.4,3.25-1.21,2.7-2.77,2.95-4.49.59-3.07-4.18-7.45-6.41-12.18-8.42.97,1.42,1.91,2.85,2.9,4.25,3.96,5.58,4.86,11.61,2.63,18.08-.18.54-.63.99-.96,1.47-.48-.36-1.1-.64-1.42-1.12-1.27-1.86-2.49-3.76-3.64-5.7-2.9-4.88-7.09-8.3-12.24-10.48-2.09-.89-4.46-1.11-6.97-1.28,4.53,4.01,9.39,7.64,11.74,13.34-.17.28-.33.56-.5.84-2.62-1.03-5.16-2.39-7.87-3.03-3.89-.92-7.65-2.5-11.97-1.13-10.33,3.28-20.69,6.55-31.23,9.05-10.36,2.46-19.99.65-27.64-7.64-1.07-1.16-1.17-1.94.01-2.97,1.7-1.48,3.4-2.96,5.01-4.55,2.83-2.79,3.15-7.12.77-9.33l-.02-.02c-1.19-.72-2.32-1.57-3.59-2.11-1.24-.53-2.61-.73-4.38-1.19.94-.69,1.58-1.21,2.27-1.66,8.49-5.56,16.96-11.12,25.48-16.62,1.5-.97,2.42-2.05,2.82-3.9,1-4.62,1.67-9.46,3.62-13.69,4.38-9.56,12.26-15.92,21.28-20.99,5.69-3.2,11.86-4.75,18.27-5.66,1.96-.28,2.47.3,2.32,2.12-.12,1.57-.02,3.16-.02,4.72,4.06.51,4.62.08,5.17-3.7,1.07-7.38,3.76-16.01,5.04-23.35.53-2.98,1.75-5.84,2.71-8.73.47-1.43,1.34-2.04,2.65-.8,7.91,7.46,14.1,16.13,18.87,26.18,2,4.2,2.93,8.47,1.79,13.09-1.06,4.28-1.97,8.6-3.1,12.86-.28,1.05-.75,2.69-2.41,1.96-1.69-.74-4.31-.51-4.37-3.34-.06-2.33,0-4.67.07-7,.25-9.62-.35-16.77-4.11-25.7-2.48-5.87-4.83-9.24-6.93-13.24-1.7,3.39-2.28,6.42-2.61,10-.77,8.32-.52,17.42-.17,26-1.99.19-4.24.4-6.49.61,6.64,2.13,12.55,5.39,18.22,9.09-.09.3-.19.6-.28.89-5.28-.72-10.56-1.45-15.84-2.18-.09.29-.19.58-.28.87.78.37,1.53.82,2.34,1.09,7.38,2.51,14.08,6.31,20.27,10.97,2.04,1.55,3.86,3.41,5.67,5.23.48.48.54,1.37.8,2.07-.73-.06-1.56.08-2.16-.22-3.39-1.68-6.69-3.53-10.09-5.19-1.47-.72-3.1-1.13-4.65-1.69-.13.23-.26.45-.38.67.7.54,1.4,1.1,2.12,1.63ZM298.42,372.25c-.61,2.76-2.12,4.45-4.47,5.07-1.87.5-3.81.24-5.29-1.65,2.82-2.47,6.07-3.14,9.76-3.42Z"/>
  <path class="cls-2" d="M237.87,399.75s-.02-.01-.03-.01c0,0,.01,0,.01,0l.02.02Z"/>
  <path d="M298.61,358.61c-7.52,2.7-14.52,5.22-21.63,7.77,1.19-7.98,10.59-11.47,21.63-7.77Z"/>
  <path d="M269.95,406.89c-.5.61-.93,1.64-1.52,1.74-4.34.72-8.72,1.26-13.08,1.82-1.23.15-2.49.08-3.72.22-1.66.18-2.24-.94-2.23-2.15.01-.47,1.23-1.27,1.95-1.35,5.28-.53,10.56-.92,15.71-1.34.38,0,.66-.08.86.01.69.32,1.35.7,2.03,1.05Z"/>
  <path d="M268.22,416.74c-5.21.76-10.42,1.45-16.01,2.23-.08-1.58-.12-2.35-.18-3.41,5.84-.58,11.55-1.15,17.18-1.71.86,1.62.67,2.64-.99,2.89Z"/>
  <path class="cls-1" d="M304.45,536.49c-.13-1.05-.51-1.97-1.14-2.75-.64-.79-1.58-1.39-2.82-1.83-1.24-.43-3.26-.76-6.04-1-1.12-.09-1.84-.24-2.17-.46-.33-.21-.51-.47-.55-.77-.03-.3.03-.57.18-.82.06-.11.14-.22.24-.32.33-.33.86-.54,1.58-.63.04,0,.08-.01.11-.01.83-.09,1.51.03,2.03.35.54.34.94.93,1.2,1.77l5.82-1.02c-.49-1.96-1.47-3.32-2.93-4.07-.87-.45-1.94-.72-3.22-.79-.35-.02-.73-.02-1.12-.01-.53.01-1.1.06-1.7.13-1.24.14-2.32.36-3.23.65-.2.07-.4.14-.58.21-.38.14-.73.3-1.04.48-1.14.65-1.96,1.44-2.46,2.39-.49.95-.68,1.92-.56,2.91.18,1.5.91,2.67,2.2,3.5,1.27.83,3.31,1.38,6.1,1.64,1.71.15,2.81.4,3.32.74.5.34.78.75.84,1.25.07.53-.12,1.02-.55,1.47-.44.46-1.1.74-1.98.84-1.19.14-2.15-.14-2.88-.84-.45-.43-.8-1.1-1.03-2l-5.87,1.05c.4,1.92,1.34,3.44,2.8,4.54,1.47,1.1,3.91,1.45,7.33,1.04,1.95-.23,3.53-.69,4.75-1.38,1.21-.69,2.12-1.6,2.71-2.73.58-1.12.81-2.3.66-3.53Z"/>
  <path class="cls-1" d="M321.92,524.08c-.54-1.64-1.45-2.74-2.71-3.31-1.26-.56-2.87-.52-4.82.12l-8.96,2.95,5.5,16.67,5.41-1.78-2.04-6.19,2.95-.97c2.18-.72,3.63-1.72,4.38-3.02.75-1.3.84-2.79.29-4.47ZM316.53,527.49c-.31.49-.98.9-2.02,1.24l-1.32.44-1.23-3.72,1.54-.51c1-.33,1.75-.37,2.23-.13.49.24.82.63.99,1.15.18.54.11,1.05-.19,1.53Z"/>
  <path class="cls-1" d="M343.13,521.48l-5.11.8c.24,1.11.23,2.05-.03,2.81-.25.76-.87,1.37-1.86,1.83-1.01.47-1.95.51-2.82.12-.86-.39-1.71-1.47-2.53-3.23-.66-1.43-.91-2.58-.75-3.47.2-1.18.88-2.04,2.05-2.59.51-.24,1.03-.35,1.54-.34.51,0,.99.13,1.46.37.28.14.61.42.99.83l4.09-3.08c-1.36-1.41-2.83-2.24-4.41-2.49-1.58-.25-3.41.11-5.51,1.09-2.68,1.25-4.42,2.92-5.23,5.02-.8,2.09-.59,4.46.63,7.09.92,1.97,2.1,3.4,3.52,4.28,1.42.87,2.82,1.3,4.2,1.26,1.38-.03,2.98-.46,4.79-1.31,1.49-.69,2.62-1.47,3.39-2.33s1.3-1.85,1.57-2.97c.27-1.11.28-2.34.02-3.69Z"/>
  <path class="cls-1" d="M360.17,507.18c-1.51-2.38-3.39-3.79-5.62-4.23-2.24-.44-4.65.16-7.23,1.8-2.51,1.6-4.05,3.52-4.6,5.76-.56,2.25-.07,4.58,1.47,6.99,1.1,1.74,2.37,2.95,3.82,3.65,1.44.7,2.9.95,4.39.76,1.48-.2,3.1-.85,4.84-1.96,1.72-1.09,2.96-2.31,3.72-3.66.77-1.35,1.1-2.77,1-4.27-.09-1.49-.69-3.1-1.79-4.84ZM356.69,514.15c-.16,1-.75,1.82-1.78,2.48-1,.63-2,.81-3,.52-.99-.28-1.97-1.17-2.92-2.67-.96-1.51-1.35-2.77-1.18-3.8.17-1.02.74-1.84,1.7-2.46,1.01-.64,2.01-.82,3.01-.55,1,.27,1.94,1.1,2.82,2.49,1.06,1.66,1.51,2.99,1.35,3.99Z"/>
  <path class="cls-1" d="M378.25,496.29l-4.73,2.1c.52,1.01.76,1.92.71,2.72-.05.81-.49,1.56-1.32,2.26-.85.72-1.75,1-2.68.85-.94-.15-2.04-.97-3.29-2.46-1.01-1.2-1.56-2.25-1.64-3.14-.11-1.2.32-2.21,1.31-3.04.43-.37.89-.61,1.39-.74.5-.12,1-.13,1.51-.02.3.07.7.25,1.18.54l3.14-4.04c-1.69-1-3.32-1.42-4.91-1.25-1.59.17-3.27,1-5.04,2.49-2.26,1.91-3.5,3.98-3.73,6.21-.23,2.24.59,4.46,2.46,6.68,1.41,1.67,2.91,2.74,4.51,3.21,1.61.48,3.07.52,4.39.13,1.33-.39,2.75-1.23,4.28-2.52,1.26-1.06,2.14-2.11,2.66-3.14.52-1.04.77-2.13.74-3.27-.02-1.15-.34-2.34-.94-3.57Z"/>
  <path class="cls-1" d="M399.17,481.14l3.53-4.48-13.8-10.85-3.52,4.47,4.82,3.8-3.83,4.87-4.83-3.79-3.5,4.45,13.79,10.86,3.51-4.46-5.58-4.39,3.83-4.87,5.58,4.39Z"/>
  <path class="cls-1" d="M396.11,453.43l-3.04,5.39,11.9,14.63,2.84-5.04-2.08-2.21,3.16-5.61,2.98.63,2.92-5.18-18.68-2.61ZM403.03,463.27l-4.51-4.85,6.49,1.33-1.98,3.52Z"/>
  <path class="cls-1" d="M422.39,435.93l-16.48-6.03-1.84,5.02,9.12,3.34-11.5,3.15-1.82,4.98,16.49,6.03,1.83-5.01-9.05-3.31,11.41-3.15,1.84-5.02Z"/>
  <path class="cls-1" d="M425.57,418.39c-.07-.94-.37-1.86-.92-2.77-.54-.9-1.28-1.67-2.22-2.29-.94-.63-2.33-1.11-4.17-1.44-1.18-.22-2.32-.27-3.43-.17-1.11.1-2.12.41-3.03.93-.91.51-1.67,1.23-2.28,2.16-.61.93-1.06,2.21-1.36,3.84l-1.51,8.29,17.27,3.15,1.51-8.29c.18-1,.23-2.13.14-3.41ZM421.26,422.43l-.24,1.36-9.44-1.71.25-1.4c.27-1.44.79-2.42,1.58-2.92.79-.5,2.1-.58,3.93-.25,1.38.25,2.36.57,2.92.97.57.39.93.85,1.09,1.39.15.54.13,1.39-.09,2.56Z"/>
  <path class="cls-1" d="M427.29,395.99c-.11-.96-.29-1.68-.55-2.16-.42-.77-.98-1.38-1.7-1.83-.73-.46-1.54-.69-2.45-.7-1.12,0-2.05.29-2.8.9-.74.61-1.27,1.58-1.59,2.89-.28-.87-.66-1.53-1.15-1.99-.74-.68-1.62-1.03-2.66-1.04-1.24-.02-2.28.44-3.13,1.38-.85.94-1.28,2.29-1.31,4.06l-.12,10.62,17.55.21.12-9.79c0-.42-.07-1.27-.21-2.55ZM416.78,402.48l-3.33-.04.03-2.5c.01-.86.16-1.47.45-1.81.3-.34.7-.51,1.21-.5.55,0,.97.18,1.25.53.29.35.43.97.42,1.85l-.03,2.47ZM423.68,402.56l-3.56-.04.03-2.88c.02-.99.18-1.69.5-2.08.32-.39.74-.59,1.26-.58.56,0,1,.21,1.33.62.32.4.48,1.09.47,2.07l-.03,2.89Z"/>
  <path class="cls-1" d="M426.6,382.82l-3-.44-.97-6.37,2.72-1.34-.9-5.88-16.31,9.47.94,6.12,18.39,4.17-.87-5.73ZM413.12,380.7l5.93-2.95.61,3.98-6.54-1.03Z"/>
  <path class="cls-1" d="M418.92,351.27l-4.12,1.31,2.69,8.44-12.61,4.01,1.72,5.41,16.72-5.32-4.4-13.85Z"/>
  <path class="cls-1" d="M410.86,334.08l-3.89,1.89,3.85,7.97-11.91,5.76,2.47,5.11,15.81-7.65-6.33-13.08Z"/>
</svg>